<?xml version="1.0" encoding="iso-8859-1"?>
<!-- Generator: Adobe Illustrator 19.0.0, SVG Export Plug-In . SVG Version: 6.00 Build 0)  -->
<svg version="1.1" id="Layer_1" xmlns="http://www.w3.org/2000/svg" xmlns:xlink="http://www.w3.org/1999/xlink" x="0px" y="0px"
	 viewBox="0 0 512 512" style="enable-background:new 0 0 512 512;" xml:space="preserve">
<g>
	<g>
		<path d="M490.667,0H21.333C9.552,0,0,9.551,0,21.333v469.333C0,502.449,9.552,512,21.333,512h469.333
			c11.782,0,21.333-9.551,21.333-21.333V21.333C512,9.551,502.45,0,490.667,0z M469.334,469.333L469.334,469.333H42.667V42.667
			h426.667V469.333z"/>
	</g>
</g>
<g>
	<g>
		<path d="M384.002,85.333H170.667c-8.081,0-15.467,4.565-19.081,11.793l-21.333,42.667c-5.269,10.538-0.998,23.353,9.541,28.622
			s23.353,0.998,28.622-9.541L183.852,128h65.2l-73.143,256h-26.575C137.552,384,128,393.551,128,405.333
			c0,11.782,9.551,21.333,21.333,21.333h85.333c11.782,0,21.333-9.551,21.333-21.333c0-11.782-9.551-21.333-21.333-21.333h-14.384
			l73.143-256h56.057l-5.896,11.793c-5.269,10.538-0.998,23.353,9.541,28.622c10.539,5.269,23.353,0.998,28.622-9.541l21.333-42.667
			C410.175,102.022,399.861,85.333,384.002,85.333z"/>
	</g>
</g>
<g>
</g>
<g>
</g>
<g>
</g>
<g>
</g>
<g>
</g>
<g>
</g>
<g>
</g>
<g>
</g>
<g>
</g>
<g>
</g>
<g>
</g>
<g>
</g>
<g>
</g>
<g>
</g>
<g>
</g>
</svg>
